<?xml version="1.0" encoding="UTF-8"?>
<svg version="1.1" xmlns="http://www.w3.org/2000/svg" width="343" height="416">
<path d="M0 0 C1.16949371 -0.00679667 2.33898742 -0.01359334 3.54392034 -0.02059597 C6.77728588 -0.03626652 10.01033554 -0.03855679 13.24372685 -0.03501284 C16.73606304 -0.0343992 20.22832532 -0.05097264 23.72062683 -0.06518555 C30.55839955 -0.09007317 37.39609468 -0.09834865 44.23390891 -0.10002268 C49.79476795 -0.10144987 55.35560145 -0.10762266 60.91645241 -0.11712456 C76.69619102 -0.14353718 92.4758685 -0.15738403 108.25562938 -0.15513314 C109.53086522 -0.15495333 109.53086522 -0.15495333 110.8318634 -0.1547699 C111.68306361 -0.15464726 112.53426381 -0.15452461 113.41125796 -0.15439826 C127.19914607 -0.15317949 140.98678815 -0.18187408 154.77460512 -0.224185 C168.94525769 -0.26732613 183.11579041 -0.28799276 197.28651029 -0.28540367 C205.23688067 -0.28440937 213.18699323 -0.29257899 221.13730431 -0.32493782 C227.90786523 -0.35231903 234.67805149 -0.35872524 241.44864395 -0.33840955 C244.89947062 -0.32864581 248.34957944 -0.3283241 251.80033684 -0.3544693 C255.551446 -0.37769722 259.30068756 -0.36365446 263.05175781 -0.34057617 C264.12873104 -0.35600686 265.20570426 -0.37143755 266.31531304 -0.38733584 C276.61323006 -0.24795329 286.12638325 4.01235129 293.34333801 11.40113831 C299.8425993 19.89029688 302.80004118 26.83999725 302.73101807 37.48109436 C302.73909637 38.98102141 302.73909637 38.98102141 302.74733788 40.51125002 C302.76161861 43.85422944 302.75451312 47.19681295 302.74739075 50.53981018 C302.75309448 52.94012266 302.76005874 55.34043243 302.76818848 57.74073792 C302.78427658 63.58090678 302.78621874 69.42095205 302.78097557 75.26113838 C302.77692749 80.01342828 302.77838503 84.76568646 302.78372383 89.51797485 C302.78447225 90.19543445 302.78522068 90.87289404 302.78599178 91.57088271 C302.78752335 92.94740801 302.7890617 94.3239333 302.79060674 95.70045859 C302.80432874 108.60473561 302.79889787 121.50895198 302.78742153 134.41322762 C302.7775056 146.19118743 302.79040187 157.96898977 302.81435572 169.74692529 C302.83880808 181.86209861 302.84833858 193.97719879 302.841703 206.09239626 C302.83822228 212.88529312 302.84036562 219.67806918 302.85795403 226.47094727 C302.87348505 232.86667546 302.86939915 239.262105 302.85064888 245.65782166 C302.8469791 247.99618474 302.85002403 250.33457025 302.86053467 252.6729126 C302.91261452 265.22484719 302.55323568 276.48060159 298.34333801 288.40113831 C298.06839225 289.19965965 297.79344648 289.998181 297.51016903 290.82089996 C289.4537562 312.60285605 272.78078479 328.11931894 256.76130676 344.22145081 C255.74352363 345.24534723 255.74352363 345.24534723 254.70517921 346.28992844 C251.11929877 349.89647937 247.53028588 353.49987981 243.938797 357.10084534 C240.26945437 360.78127052 236.61195975 364.4732426 232.95693493 368.1678791 C230.10575622 371.04540259 227.24553563 373.91381381 224.38294411 376.77997971 C223.03181202 378.13592394 221.68400286 379.49518915 220.33987999 380.85808182 C209.82137527 391.51440954 198.75790414 401.62650326 184.90583801 407.77613831 C184.20482971 408.09719543 183.50382141 408.41825256 182.78157043 408.7490387 C171.93584474 413.54485065 160.2684361 416.50619442 148.38710022 416.54830933 C147.71115964 416.55198601 147.03521905 416.5556627 146.33879542 416.55945081 C144.08672101 416.57041364 141.83469284 416.57431878 139.58259583 416.57814026 C137.96248735 416.58441042 136.34238029 416.5910577 134.72227478 416.59805298 C129.41368092 416.61902696 124.10508698 416.62944791 118.79646301 416.63941956 C116.96472407 416.64346935 115.13298528 416.64758634 113.30124664 416.65176964 C104.69526931 416.67080527 96.08930049 416.68504071 87.48330617 416.69338161 C77.56615678 416.70315356 67.64923061 416.72947885 57.73215985 416.7698825 C50.05466186 416.80008334 42.37722773 416.81485417 34.69967151 416.81816262 C30.11960344 416.82050818 25.53977429 416.82940454 20.9597702 416.85462379 C16.64882885 416.87797975 12.3382825 416.88210771 8.02729416 416.87186241 C6.45116992 416.8713688 4.87502571 416.8776375 3.29896164 416.89141846 C-9.5802757 416.99767256 -19.34169446 414.98460908 -29.15666199 406.15113831 C-35.3338044 399.35628165 -39.90167228 393.66504891 -39.91393089 384.16034412 C-39.92037979 382.89556667 -39.92682868 381.63078922 -39.93347299 380.32768518 C-39.93053079 378.9265354 -39.92739536 377.52538602 -39.92408752 376.12423706 C-39.92782408 374.63386864 -39.93242562 373.14350217 -39.93781817 371.65313882 C-39.95006327 367.55634953 -39.94978592 363.45964181 -39.94742942 359.36283839 C-39.94702163 354.94482132 -39.9580569 350.52683054 -39.96754456 346.10882568 C-39.98416447 337.45199223 -39.98965458 328.79518602 -39.99076931 320.13833795 C-39.99171944 313.10097163 -39.99582799 306.06361431 -40.00217056 299.02625084 C-40.01978671 279.07425837 -40.029009 259.12228742 -40.02750961 239.17028711 C-40.0274297 238.09444896 -40.02734979 237.01861081 -40.02726746 235.91017151 C-40.02718569 234.83301957 -40.02710393 233.75586764 -40.02701969 232.64607473 C-40.02620698 215.19348973 -40.04533993 197.74099106 -40.07354419 180.28843103 C-40.10227521 162.36848164 -40.11608432 144.44857435 -40.11435664 126.52860135 C-40.11369275 116.46787604 -40.11918445 106.4072412 -40.14071274 96.34653664 C-40.15892752 87.77935815 -40.16326952 79.21231114 -40.14969389 70.64512167 C-40.14316537 66.27525601 -40.14304272 61.90564258 -40.16040039 57.53580093 C-40.1761417 53.53162447 -40.17325688 49.52789998 -40.15583213 45.52373447 C-40.15276451 44.07889524 -40.15638568 42.63402219 -40.16755228 41.18922285 C-40.26019402 28.34720807 -37.96891386 19.95210829 -29.02384949 10.59645081 C-25.82169385 7.62679492 -22.57557235 5.31721072 -18.65666199 3.40113831 C-17.69841365 2.89306169 -16.74016531 2.38498507 -15.75287914 1.86151218 C-10.64243342 -0.29901893 -5.46777054 -0.02334489 0 0 Z " fill="#DCE9FA" transform="translate(40.65666198730469,-0.4011383056640625)"/>
<path d="M0 0 C1.16949371 -0.00679667 2.33898742 -0.01359334 3.54392034 -0.02059597 C6.77728588 -0.03626652 10.01033554 -0.03855679 13.24372685 -0.03501284 C16.73606304 -0.0343992 20.22832532 -0.05097264 23.72062683 -0.06518555 C30.55839955 -0.09007317 37.39609468 -0.09834865 44.23390891 -0.10002268 C49.79476795 -0.10144987 55.35560145 -0.10762266 60.91645241 -0.11712456 C76.69619102 -0.14353718 92.4758685 -0.15738403 108.25562938 -0.15513314 C109.53086522 -0.15495333 109.53086522 -0.15495333 110.8318634 -0.1547699 C111.68306361 -0.15464726 112.53426381 -0.15452461 113.41125796 -0.15439826 C127.19914607 -0.15317949 140.98678815 -0.18187408 154.77460512 -0.224185 C168.94525769 -0.26732613 183.11579041 -0.28799276 197.28651029 -0.28540367 C205.23688067 -0.28440937 213.18699323 -0.29257899 221.13730431 -0.32493782 C227.90786523 -0.35231903 234.67805149 -0.35872524 241.44864395 -0.33840955 C244.89947062 -0.32864581 248.34957944 -0.3283241 251.80033684 -0.3544693 C255.551446 -0.37769722 259.30068756 -0.36365446 263.05175781 -0.34057617 C264.12873104 -0.35600686 265.20570426 -0.37143755 266.31531304 -0.38733584 C276.61323006 -0.24795329 286.12638325 4.01235129 293.34333801 11.40113831 C299.8425993 19.89029688 302.80004118 26.83999725 302.73101807 37.48109436 C302.73909637 38.98102141 302.73909637 38.98102141 302.74733788 40.51125002 C302.76161861 43.85422944 302.75451312 47.19681295 302.74739075 50.53981018 C302.75309448 52.94012266 302.76005874 55.34043243 302.76818848 57.74073792 C302.78427658 63.58090678 302.78621874 69.42095205 302.78097557 75.26113838 C302.77692749 80.01342828 302.77838503 84.76568646 302.78372383 89.51797485 C302.78447225 90.19543445 302.78522068 90.87289404 302.78599178 91.57088271 C302.78752335 92.94740801 302.7890617 94.3239333 302.79060674 95.70045859 C302.80432874 108.60473561 302.79889787 121.50895198 302.78742153 134.41322762 C302.7775056 146.19118743 302.79040187 157.96898977 302.81435572 169.74692529 C302.83880808 181.86209861 302.84833858 193.97719879 302.841703 206.09239626 C302.83822228 212.88529312 302.84036562 219.67806918 302.85795403 226.47094727 C302.87348505 232.86667546 302.86939915 239.262105 302.85064888 245.65782166 C302.8469791 247.99618474 302.85002403 250.33457025 302.86053467 252.6729126 C302.91261452 265.22484719 302.55323568 276.48060159 298.34333801 288.40113831 C298.06839225 289.19965965 297.79344648 289.998181 297.51016903 290.82089996 C289.4537562 312.60285605 272.78078479 328.11931894 256.76130676 344.22145081 C255.74352363 345.24534723 255.74352363 345.24534723 254.70517921 346.28992844 C251.11929877 349.89647937 247.53028588 353.49987981 243.938797 357.10084534 C240.26945437 360.78127052 236.61195975 364.4732426 232.95693493 368.1678791 C230.10575622 371.04540259 227.24553563 373.91381381 224.38294411 376.77997971 C223.03181202 378.13592394 221.68400286 379.49518915 220.33987999 380.85808182 C209.82137527 391.51440954 198.75790414 401.62650326 184.90583801 407.77613831 C184.20482971 408.09719543 183.50382141 408.41825256 182.78157043 408.7490387 C171.93584474 413.54485065 160.2684361 416.50619442 148.38710022 416.54830933 C147.71115964 416.55198601 147.03521905 416.5556627 146.33879542 416.55945081 C144.08672101 416.57041364 141.83469284 416.57431878 139.58259583 416.57814026 C137.96248735 416.58441042 136.34238029 416.5910577 134.72227478 416.59805298 C129.41368092 416.61902696 124.10508698 416.62944791 118.79646301 416.63941956 C116.96472407 416.64346935 115.13298528 416.64758634 113.30124664 416.65176964 C104.69526931 416.67080527 96.08930049 416.68504071 87.48330617 416.69338161 C77.56615678 416.70315356 67.64923061 416.72947885 57.73215985 416.7698825 C50.05466186 416.80008334 42.37722773 416.81485417 34.69967151 416.81816262 C30.11960344 416.82050818 25.53977429 416.82940454 20.9597702 416.85462379 C16.64882885 416.87797975 12.3382825 416.88210771 8.02729416 416.87186241 C6.45116992 416.8713688 4.87502571 416.8776375 3.29896164 416.89141846 C-9.5802757 416.99767256 -19.34169446 414.98460908 -29.15666199 406.15113831 C-35.3338044 399.35628165 -39.90167228 393.66504891 -39.91393089 384.16034412 C-39.92037979 382.89556667 -39.92682868 381.63078922 -39.93347299 380.32768518 C-39.93053079 378.9265354 -39.92739536 377.52538602 -39.92408752 376.12423706 C-39.92782408 374.63386864 -39.93242562 373.14350217 -39.93781817 371.65313882 C-39.95006327 367.55634953 -39.94978592 363.45964181 -39.94742942 359.36283839 C-39.94702163 354.94482132 -39.9580569 350.52683054 -39.96754456 346.10882568 C-39.98416447 337.45199223 -39.98965458 328.79518602 -39.99076931 320.13833795 C-39.99171944 313.10097163 -39.99582799 306.06361431 -40.00217056 299.02625084 C-40.01978671 279.07425837 -40.029009 259.12228742 -40.02750961 239.17028711 C-40.0274297 238.09444896 -40.02734979 237.01861081 -40.02726746 235.91017151 C-40.02718569 234.83301957 -40.02710393 233.75586764 -40.02701969 232.64607473 C-40.02620698 215.19348973 -40.04533993 197.74099106 -40.07354419 180.28843103 C-40.10227521 162.36848164 -40.11608432 144.44857435 -40.11435664 126.52860135 C-40.11369275 116.46787604 -40.11918445 106.4072412 -40.14071274 96.34653664 C-40.15892752 87.77935815 -40.16326952 79.21231114 -40.14969389 70.64512167 C-40.14316537 66.27525601 -40.14304272 61.90564258 -40.16040039 57.53580093 C-40.1761417 53.53162447 -40.17325688 49.52789998 -40.15583213 45.52373447 C-40.15276451 44.07889524 -40.15638568 42.63402219 -40.16755228 41.18922285 C-40.26019402 28.34720807 -37.96891386 19.95210829 -29.02384949 10.59645081 C-25.82169385 7.62679492 -22.57557235 5.31721072 -18.65666199 3.40113831 C-17.69841365 2.89306169 -16.74016531 2.38498507 -15.75287914 1.86151218 C-10.64243342 -0.29901893 -5.46777054 -0.02334489 0 0 Z M-21.40275574 24.36207581 C-26.10810842 32.01377083 -26.08794556 38.68100942 -26.05107117 47.5144043 C-26.05596299 48.96255388 -26.06215415 50.41069955 -26.06952906 51.85883862 C-26.08591458 55.82958956 -26.08361352 59.80014177 -26.07815409 63.77091467 C-26.07548221 68.05662633 -26.09001857 72.3422852 -26.10224915 76.62797546 C-26.12329791 85.02051341 -26.12784434 93.41298226 -26.12606126 101.80554347 C-26.12475348 108.62692259 -26.1285586 115.44828016 -26.13598633 122.26965523 C-26.13808552 124.2347576 -26.14018312 126.19985998 -26.14227915 128.16496235 C-26.14332268 129.14305129 -26.1443662 130.12114023 -26.14544135 131.12886823 C-26.16434113 149.62449427 -26.16329419 168.12008065 -26.15647203 186.61571235 C-26.15089543 203.53605805 -26.17172743 220.45625239 -26.20483249 237.37656271 C-26.23856396 254.75190667 -26.25373859 272.12717811 -26.24911547 289.50255543 C-26.2468704 299.25692151 -26.25211959 309.01114765 -26.27700806 318.76548576 C-26.29801401 327.06883191 -26.30162008 335.37196137 -26.28270847 343.67531639 C-26.27354666 347.91133365 -26.27242104 352.14694681 -26.29306412 356.38293266 C-26.31176084 360.26242972 -26.307286 364.14119135 -26.2845183 368.02066029 C-26.28032921 369.42233485 -26.28454314 370.82406564 -26.29811424 372.22568076 C-26.38550301 381.91255591 -25.14266925 387.52430466 -18.59416199 394.64332581 C-17.63509949 395.45156799 -17.63509949 395.45156799 -16.65666199 396.27613831 C-16.01728699 396.83043518 -15.37791199 397.38473206 -14.71916199 397.95582581 C-10.53343855 400.88900321 -6.84539373 401.65164241 -1.78323364 401.66183472 C-0.01934296 401.67246193 -0.01934296 401.67246193 1.78018188 401.68330383 C3.70261971 401.67958771 3.70261971 401.67958771 5.66389465 401.67579651 C7.03430966 401.68014636 8.40472224 401.68533042 9.77513123 401.69128418 C13.49249192 401.7046634 17.20975086 401.70525353 20.92713094 401.70272088 C24.03788994 401.70164937 27.14862852 401.7065397 30.25938314 401.7113263 C37.60728929 401.72242006 44.95514434 401.72286115 52.30305481 401.71681213 C59.85959257 401.71078636 67.41594348 401.72304798 74.97244936 401.7443822 C81.47630526 401.76206305 87.98010206 401.76798897 94.48398107 401.76474446 C98.36096519 401.76294006 102.23781635 401.76548183 106.11477852 401.779459 C109.76825268 401.79213686 113.4214389 401.79000044 117.07490921 401.77704811 C119.03587868 401.77359562 120.99685734 401.78478963 122.95779419 401.7966156 C137.3099592 401.71241936 149.09547516 398.57328726 159.65583801 388.52613831 C172.85455302 374.45104987 172.89677116 359.15917736 172.84333801 340.83863831 C172.83120101 336.67021719 172.8451794 332.50304521 172.87458801 328.33473206 C172.85760864 326.9342588 172.85760864 326.9342588 172.84028625 325.50549316 C172.92347669 314.49045214 176.72934518 305.35698388 184.34333801 297.40113831 C193.78392713 288.76974254 203.72229749 286.2976488 216.17536926 286.15504456 C218.12784765 286.12210316 220.0803215 286.08889156 222.03279114 286.05543518 C225.09371299 286.0081026 228.15461682 285.96365399 231.21565247 285.92433167 C234.18158249 285.88439695 237.14714528 285.8329063 240.11286926 285.78004456 C241.01834 285.7716304 241.92381073 285.76321625 242.85671997 285.75454712 C255.09408743 285.51888266 266.29584165 281.65433484 275.28083801 273.08863831 C279.16751522 268.90677042 281.93883878 264.56039847 284.34333801 259.40113831 C284.65013489 258.77078674 284.95693176 258.14043518 285.27302551 257.49098206 C288.27079501 250.99581481 288.49288051 244.70731278 288.49723816 237.69856262 C288.50162041 236.83477863 288.50600267 235.97099464 288.51051772 235.08103538 C288.52384781 232.19326791 288.53007145 229.30553092 288.53620911 226.41773987 C288.54411448 224.34443526 288.5523837 222.27113202 288.56098938 220.1978302 C288.58715349 213.39582117 288.60250885 206.59380615 288.61677551 199.79176331 C288.62213701 197.44740037 288.62751453 195.10303748 288.63290787 192.75867462 C288.65452604 183.00657814 288.67326276 173.25448329 288.68453026 163.50236893 C288.70077207 149.53854584 288.73396801 135.57500085 288.79093111 121.61128259 C288.8296463 111.78518428 288.84916469 101.95916031 288.85445082 92.13298774 C288.85810131 86.2673929 288.87009158 80.40209507 288.90255356 74.53658295 C288.9326626 69.01743836 288.93893565 63.49877009 288.9271698 57.97956085 C288.92694932 55.95836612 288.93523273 53.93714908 288.95282364 51.91603088 C289.2636254 35.83224207 289.2636254 35.83224207 281.35342979 22.28395462 C273.94602155 15.13107952 267.08436176 13.95586358 257.12878418 14.00672913 C255.44593086 13.99759247 255.44593086 13.99759247 253.7290805 13.98827124 C249.97368748 13.97163622 246.21863334 13.97641795 242.46321106 13.98121643 C239.76906675 13.97387637 237.07494773 13.96538294 234.3808136 13.95555115 C227.82444493 13.93452001 221.26816474 13.92995498 214.71176632 13.93173903 C209.38067686 13.93304791 204.04961494 13.92923609 198.71853065 13.92181396 C197.18147352 13.91971471 195.64441637 13.91761711 194.10735923 13.91552114 C193.34225844 13.91447762 192.57715765 13.91343409 191.78887198 13.91235894 C177.32578941 13.89346566 162.86275758 13.89450387 148.39966778 13.90132827 C135.17950886 13.90690215 121.95954383 13.88608336 108.73943021 13.8529678 C95.15413455 13.81920254 81.56893168 13.80406605 67.98359329 13.80868483 C60.36084401 13.81092677 52.73827389 13.80572681 45.11556053 13.78079224 C38.62530735 13.7597423 32.13533154 13.7562234 25.64506682 13.77509183 C22.33630466 13.78422758 19.02816442 13.78273067 15.71942329 13.76473618 C12.12542669 13.74654146 8.53279843 13.75929711 4.93884277 13.77967834 C3.90273524 13.7671605 2.86662772 13.75464265 1.79912299 13.74174547 C-7.68046208 13.85669829 -15.30019824 16.96614045 -21.40275574 24.36207581 Z " fill="#010102" transform="translate(40.65666198730469,-0.4011383056640625)"/>
<path d="M0 0 C0.495 0.99 0.495 0.99 1 2 C-5.30693856 17.66746276 -18.51979279 29.97610863 -30.24609375 41.64453125 C-31.70804234 43.10850706 -33.1695459 44.5729274 -34.63063049 46.0377655 C-37.67412472 49.08564981 -40.72289335 52.12812656 -43.77563477 55.16674805 C-47.66333342 59.03732656 -51.53736205 62.92126428 -55.40753078 66.80936146 C-58.41603106 69.82876358 -61.43171567 72.8409091 -64.44954109 75.85098839 C-65.88009046 77.279555 -67.30846625 78.71030205 -68.73449516 80.14338112 C-78.06955077 89.51446997 -87.32845053 98.22023762 -99.0625 104.5625 C-100.41021484 105.30693359 -100.41021484 105.30693359 -101.78515625 106.06640625 C-102.51605469 106.37449219 -103.24695313 106.68257813 -104 107 C-104.66 106.67 -105.32 106.34 -106 106 C-105.45730469 105.09378906 -104.91460937 104.18757813 -104.35546875 103.25390625 C-97.00715918 90.81396238 -93.87601871 80.54347176 -93.859375 66.04296875 C-93.84104838 64.10610802 -93.82147821 62.16925873 -93.80078125 60.23242188 C-93.77186327 57.21098349 -93.75000045 54.19028686 -93.74951172 51.16870117 C-93.72317123 28.11888855 -93.72317123 28.11888855 -86.24511719 20.1237793 C-79.58809035 13.70851609 -72.68739121 12.55971397 -63.7890625 12.55859375 C-62.82149017 12.54538589 -61.85391785 12.53217804 -60.85702515 12.51856995 C-57.77965405 12.47787464 -54.70257816 12.45607159 -51.625 12.4375 C-48.55465504 12.41359593 -45.48458319 12.38527155 -42.41439819 12.34571838 C-40.51005547 12.32165372 -38.60556989 12.30655865 -36.70108032 12.30210876 C-23.08794729 12.14410713 -11.25207325 7.57351084 0 0 Z " fill="#BBD5F8" transform="translate(321,287)"/>
<path d="M0 0 C1.01669441 -0.00538554 2.03338882 -0.01077108 3.08089215 -0.01631981 C6.49798426 -0.0306619 9.91469241 -0.02348014 13.33180237 -0.01637268 C15.77745374 -0.02207296 18.22310246 -0.02903589 20.66874695 -0.03717041 C26.6283068 -0.05328548 32.587715 -0.0551948 38.54728179 -0.04995751 C43.39078565 -0.0459178 48.23425834 -0.04735698 53.0777607 -0.05270576 C54.11137976 -0.0538284 54.11137976 -0.0538284 55.16588001 -0.05497371 C56.56569823 -0.05650517 57.96551644 -0.05804352 59.36533464 -0.05958868 C72.4958192 -0.07332011 85.6262442 -0.06787155 98.7567274 -0.05640347 C110.77119395 -0.04647059 122.78550649 -0.05941149 134.79994928 -0.08333766 C147.13420146 -0.10771579 159.46838187 -0.1173397 171.80265766 -0.11068493 C178.72830086 -0.10718981 185.65382561 -0.10944398 192.57945061 -0.12693596 C199.09081321 -0.14317751 205.60192906 -0.13849635 212.11330032 -0.11963081 C214.50585052 -0.11593324 216.89842236 -0.11908717 219.29095268 -0.1295166 C222.5517338 -0.14264782 225.81152763 -0.13124809 229.07226562 -0.11352539 C230.49959578 -0.1279329 230.49959578 -0.1279329 231.9557609 -0.14263147 C236.17075295 -0.09534683 238.50511319 0.03190835 242.18727207 2.23541164 C244.09962463 4.38768005 244.09962463 4.38768005 244.72462463 7.32518005 C243.86495381 11.5375671 242.51964335 12.78626827 239.09962463 15.38768005 C235.76091991 16.12332827 232.48675822 16.06257093 229.07899475 16.02259827 C228.06144592 16.03039822 227.04389709 16.03819817 225.99551344 16.04623449 C222.58128264 16.06619954 219.16816085 16.05037141 215.75392151 16.03465271 C213.30811918 16.04142678 210.86232196 16.05032871 208.41653442 16.061203 C202.46035096 16.0816565 196.50460375 16.07863412 190.54843724 16.0641398 C185.7078023 16.0528478 180.86725566 16.05131646 176.02661133 16.05675888 C175.33766744 16.05752505 174.64872356 16.05829121 173.93890259 16.05908059 C172.53932589 16.06067922 171.13974921 16.06230029 169.74017256 16.06394355 C156.61631264 16.07820129 143.49262734 16.06180802 130.36879605 16.03494172 C119.10792359 16.01260284 107.84730885 16.01648296 96.58644104 16.03953552 C83.50955795 16.06629318 70.43282791 16.07682799 57.35592127 16.0614742 C55.96149352 16.05988146 54.56706574 16.0583096 53.17263794 16.05675888 C52.1435105 16.05560181 52.1435105 16.05560181 51.09359261 16.05442137 C46.25876884 16.05010424 41.42404214 16.05739115 36.5892334 16.06915665 C30.08189649 16.08464415 23.57497138 16.07361774 17.06765556 16.04468536 C14.67672473 16.03806327 12.285753 16.03999124 9.89483833 16.05099869 C6.63608623 16.06462047 3.37890589 16.04757724 0.12025452 16.02259827 C-0.8306168 16.03375188 -1.78148812 16.04490548 -2.76117373 16.05639708 C-7.28320046 15.9889537 -9.29278038 15.8377978 -13.02275848 13.07456017 C-14.90037537 10.38768005 -14.90037537 10.38768005 -14.96287537 6.76268005 C-13.90037537 3.38768005 -13.90037537 3.38768005 -12.45274258 1.70097256 C-8.42341354 -0.37227443 -4.46697589 -0.02814759 0 0 Z " fill="#010101" transform="translate(56.90037536621094,190.61231994628906)"/>
<path d="M0 0 C1.01754883 -0.00779995 2.03509767 -0.01559991 3.08348131 -0.02363622 C6.49771212 -0.04360127 9.9108339 -0.02777314 13.32507324 -0.01205444 C15.77087557 -0.01882851 18.21667279 -0.02773045 20.66246033 -0.03860474 C26.61864379 -0.05905823 32.574391 -0.05603585 38.53055751 -0.04154153 C43.37119245 -0.03024953 48.2117391 -0.02871819 53.05238342 -0.03416061 C53.74132731 -0.03492678 54.43027119 -0.03569294 55.14009216 -0.03648233 C56.53966886 -0.03808095 57.93924554 -0.03970202 59.33882219 -0.04134528 C72.46268211 -0.05560302 85.58636741 -0.03920976 98.7101987 -0.01234345 C109.97107116 0.00999543 121.2316859 0.0061153 132.49255371 -0.01693726 C145.5694368 -0.04369492 158.64616684 -0.05422973 171.72307348 -0.03887594 C173.11750124 -0.03728319 174.51192901 -0.03571134 175.90635681 -0.03416061 C176.93548425 -0.03300355 176.93548425 -0.03300355 177.98540214 -0.03182311 C182.82022591 -0.02750598 187.65495261 -0.03479288 192.48976135 -0.04655838 C198.99709827 -0.06204588 205.50402337 -0.05101947 212.01133919 -0.0220871 C214.40227002 -0.01546501 216.79324175 -0.01739297 219.18415642 -0.02840042 C222.44290852 -0.0420222 225.70008886 -0.02497898 228.95874023 0 C229.90961155 -0.01115361 230.86048287 -0.02230722 231.84016848 -0.03379881 C236.36328906 0.03366088 238.37307974 0.18632815 242.10565948 2.9480381 C243.97937012 5.63491821 243.97937012 5.63491821 243.97937012 9.25991821 C242.99421967 12.58480098 242.62288985 13.59901032 239.97937012 15.63491821 C238.00195795 16.01326704 238.00195795 16.01326704 235.70143986 16.01802826 C234.82360122 16.0270849 233.94576258 16.03614154 233.04132277 16.04547262 C232.07616175 16.0401447 231.11100073 16.03481677 230.11659241 16.02932739 C229.09187975 16.0354185 228.0671671 16.0415096 227.01140255 16.04778528 C223.56124221 16.06449825 220.11144759 16.05962759 216.66125488 16.05484009 C214.19442356 16.06217557 211.72759568 16.07076027 209.26077271 16.08050537 C203.24593835 16.10046815 197.23124899 16.10609898 191.21639437 16.10431749 C186.32852057 16.10301099 181.44067689 16.10680824 176.55280876 16.11424255 C175.14604392 16.1163417 173.73927907 16.1184393 172.33251423 16.12053537 C171.63237663 16.1215789 170.93223904 16.12262243 170.21088516 16.12369758 C156.96312413 16.14260876 143.71541845 16.14154704 130.46764951 16.13472825 C118.34248526 16.12915182 106.21753224 16.14998079 94.09241737 16.18308872 C81.64858829 16.21680376 69.20486046 16.23199682 56.76098484 16.22737169 C49.77216889 16.22512481 42.78354819 16.23040186 35.79477119 16.25526428 C29.22429728 16.27843915 22.65419045 16.27572136 16.08368301 16.25533676 C13.66813378 16.25191229 11.25255533 16.25707709 8.83704567 16.27132034 C5.54721954 16.28938492 2.25890999 16.27685792 -1.03086853 16.25637817 C-2.47526398 16.27515495 -2.47526398 16.27515495 -3.94883913 16.29431105 C-10.39802784 16.20783803 -10.39802784 16.20783803 -13.60983372 13.25232697 C-15.2212926 10.26263456 -15.76821647 8.95752526 -15.02062988 5.63491821 C-10.73062591 -0.24557851 -6.73746563 -0.07902968 0 0 Z " fill="#040404" transform="translate(57.0206298828125,154.36508178710938)"/>
<path d="M0 0 C0.87783864 -0.00843994 1.75567728 -0.01687988 2.66011709 -0.02557558 C3.62527811 -0.01956553 4.59043913 -0.01355549 5.58484745 -0.00736332 C7.12191643 -0.01544163 7.12191643 -0.01544163 8.69003731 -0.02368313 C12.140207 -0.03804559 15.58999748 -0.03083849 19.04018497 -0.023736 C21.50701553 -0.02943522 23.97384344 -0.03639773 26.44066715 -0.04453373 C32.45550771 -0.06065869 38.47019803 -0.06255574 44.48504549 -0.05732083 C49.37291815 -0.05328321 54.26075992 -0.05471781 59.1486311 -0.06006908 C59.84368541 -0.06081751 60.53873972 -0.06156593 61.25485628 -0.06233703 C62.66675576 -0.06386847 64.07865523 -0.06540682 65.4905547 -0.066952 C78.73832003 -0.08068762 91.98602635 -0.07523196 105.23379035 -0.06376678 C117.35892643 -0.05383372 129.48390994 -0.06677439 141.60902249 -0.09070098 C154.05284924 -0.11507187 166.49660487 -0.12470478 178.94045502 -0.11804825 C185.92923803 -0.11455148 192.91790366 -0.11681809 199.90666866 -0.13429928 C206.4771101 -0.1505299 213.04730686 -0.14587095 219.61775684 -0.12699413 C222.03330204 -0.12329374 224.44886864 -0.12645859 226.86439419 -0.13687992 C230.15404051 -0.14999205 233.44270519 -0.13862861 236.73230839 -0.12088871 C237.69523869 -0.13049372 238.65816898 -0.14009872 239.65027899 -0.14999479 C246.07700322 -0.07835643 246.07700322 -0.07835643 249.31517982 2.22414207 C251.24775182 5.18596781 251.30020547 6.91150238 250.72206974 10.38031673 C248.85497064 12.6830723 247.36559233 14.05855544 244.72206974 15.38031673 C243.3624704 15.47711501 241.99827758 15.51307455 240.63524342 15.51733112 C239.7745628 15.52240567 238.91388219 15.52748021 238.02712035 15.53270853 C237.07597452 15.53320628 236.1248287 15.53370404 235.14486027 15.53421688 C233.63569094 15.54079026 233.63569094 15.54079026 232.09603333 15.54749644 C228.70282229 15.56092023 225.30963722 15.56707132 221.91640568 15.57318783 C219.49237798 15.58108594 217.06835147 15.5893547 214.64432621 15.5979681 C207.35401079 15.62195381 200.06369358 15.63712068 192.7733525 15.65002817 C190.71464231 15.65373946 188.6559328 15.65771274 186.59722328 15.66178083 C173.81624809 15.6870169 161.03527184 15.70907268 148.25427723 15.72150898 C145.29318329 15.72443874 142.33208938 15.72740039 139.37099552 15.73041439 C138.63501854 15.73116044 137.89904156 15.73190649 137.14076224 15.73267515 C125.2173618 15.74532979 113.29411046 15.77855366 101.37077972 15.82021622 C89.13265213 15.86262861 76.89460087 15.8862032 64.65639997 15.89142954 C57.78373572 15.89484449 50.91130445 15.90660918 44.0387125 15.93953228 C37.57416057 15.97044966 31.10990367 15.9759535 24.64528561 15.96414852 C22.2708793 15.96392711 19.89645457 15.97228759 17.52211285 15.98980236 C14.28331969 16.01239584 11.04601324 16.00424346 7.80721378 15.98831844 C6.86499084 16.00220053 5.9227679 16.01608262 4.95199275 16.03038538 C0.622019 15.97783616 -2.3995413 15.75843525 -5.90434551 13.06887913 C-8.27793026 10.38031673 -8.27793026 10.38031673 -8.34043026 6.75531673 C-6.79699574 1.85264237 -5.20477869 0.00705558 0 0 Z " fill="#050606" transform="translate(50.27793025970459,119.61968326568604)"/>
<path d="M0 0 C1.37871277 -0.01270432 1.37871277 -0.01270432 2.78527832 -0.02566528 C5.82387118 -0.04906599 8.86195861 -0.05005672 11.90063477 -0.04882812 C14.01286523 -0.05592773 16.12509375 -0.06362643 18.23731995 -0.07189941 C22.66494101 -0.08535122 27.09238374 -0.08690976 31.52001953 -0.08105469 C37.19426896 -0.07515736 42.86766313 -0.10574878 48.54174709 -0.14617157 C52.90408438 -0.17201908 57.26621493 -0.17492865 61.62861824 -0.17127991 C63.72061373 -0.17297385 65.8126185 -0.18264261 67.90453911 -0.20042419 C70.83017116 -0.22255581 73.75406149 -0.21294138 76.6796875 -0.1953125 C77.5437471 -0.20857574 78.4078067 -0.22183899 79.29804993 -0.23550415 C83.63646688 -0.17475179 85.40260174 0.04225787 88.97718811 2.73181152 C90.90454102 5.41992188 90.90454102 5.41992188 90.96704102 9.04492188 C89.75847748 12.8838884 89.39200806 13.5865957 85.90454102 15.41992188 C82.87391603 15.87058789 79.86863593 15.85019649 76.80908203 15.83984375 C75.88994019 15.84831329 74.97079834 15.85678284 74.02380371 15.86550903 C70.98521085 15.88890974 67.94712342 15.88990047 64.90844727 15.88867188 C62.7962168 15.89577148 60.68398828 15.90347018 58.57176208 15.91174316 C54.14414102 15.92519497 49.71669829 15.92675351 45.2890625 15.92089844 C39.61481308 15.91500111 33.9414189 15.94559253 28.26733494 15.98601532 C23.90499765 16.01186283 19.5428671 16.0147724 15.18046379 16.01112366 C13.0884683 16.0128176 10.99646353 16.02248636 8.90454292 16.04026794 C5.97891087 16.06239956 3.05502054 16.05278513 0.12939453 16.03515625 C-0.73466507 16.04841949 -1.59872467 16.06168274 -2.4889679 16.0753479 C-6.82738485 16.01459554 -8.59351971 15.79758588 -12.16810608 13.10803223 C-14.09545898 10.41992188 -14.09545898 10.41992188 -14.15795898 6.79492188 C-11.84953142 -0.53773038 -6.70757438 -0.02269669 0 0 Z " fill="#030303" transform="translate(56.095458984375,289.580078125)"/>
<path d="M0 0 C1.37871277 -0.01270432 1.37871277 -0.01270432 2.78527832 -0.02566528 C5.82387118 -0.04906599 8.86195861 -0.05005672 11.90063477 -0.04882812 C14.01286523 -0.05592773 16.12509375 -0.06362643 18.23731995 -0.07189941 C22.66494101 -0.08535122 27.09238374 -0.08690976 31.52001953 -0.08105469 C37.19426896 -0.07515736 42.86766313 -0.10574878 48.54174709 -0.14617157 C52.90408438 -0.17201908 57.26621493 -0.17492865 61.62861824 -0.17127991 C63.72061373 -0.17297385 65.8126185 -0.18264261 67.90453911 -0.20042419 C70.83017116 -0.22255581 73.75406149 -0.21294138 76.6796875 -0.1953125 C77.5437471 -0.20857574 78.4078067 -0.22183899 79.29804993 -0.23550415 C83.63646688 -0.17475179 85.40260174 0.04225787 88.97718811 2.73181152 C90.90454102 5.41992188 90.90454102 5.41992188 90.96704102 9.04492188 C89.75847748 12.8838884 89.39200806 13.5865957 85.90454102 15.41992188 C82.87391603 15.87058789 79.86863593 15.85019649 76.80908203 15.83984375 C75.88994019 15.84831329 74.97079834 15.85678284 74.02380371 15.86550903 C70.98521085 15.88890974 67.94712342 15.88990047 64.90844727 15.88867188 C62.7962168 15.89577148 60.68398828 15.90347018 58.57176208 15.91174316 C54.14414102 15.92519497 49.71669829 15.92675351 45.2890625 15.92089844 C39.61481308 15.91500111 33.9414189 15.94559253 28.26733494 15.98601532 C23.90499765 16.01186283 19.5428671 16.0147724 15.18046379 16.01112366 C13.0884683 16.0128176 10.99646353 16.02248636 8.90454292 16.04026794 C5.97891087 16.06239956 3.05502054 16.05278513 0.12939453 16.03515625 C-0.73466507 16.04841949 -1.59872467 16.06168274 -2.4889679 16.0753479 C-6.82738485 16.01459554 -8.59351971 15.79758588 -12.16810608 13.10803223 C-14.09545898 10.41992188 -14.09545898 10.41992188 -14.15795898 6.79492188 C-11.84953142 -0.53773038 -6.70757438 -0.02269669 0 0 Z " fill="#030303" transform="translate(56.095458984375,83.580078125)"/>
<path d="M0 0 C0.33 0 0.66 0 1 0 C1.04672292 27.50319322 1.0819903 55.00638049 1.10362434 82.50960541 C1.11393644 95.2798546 1.12799555 108.05007913 1.15087891 120.8203125 C1.17081476 131.95097702 1.18371692 143.08162367 1.18817699 154.21230555 C1.19078402 160.10576749 1.19691041 165.99917834 1.21146011 171.8926239 C1.22504705 177.44111246 1.22922036 182.98952892 1.22621536 188.53803253 C1.22676502 190.57294863 1.23073581 192.60786716 1.23841095 194.64276886 C1.24838953 197.42514198 1.24595821 200.20724438 1.24050903 202.98962402 C1.24633472 203.79120233 1.2521604 204.59278064 1.25816262 205.4186492 C1.18888391 218.54349966 -4.03937615 229.68590697 -13 239.1015625 C-22.23561378 247.90837993 -31.96479989 251.1481408 -44.5859375 251.09765625 C-45.28772125 251.0962413 -45.989505 251.09482635 -46.71255493 251.09336853 C-48.93341504 251.0878129 -51.15417084 251.07526892 -53.375 251.0625 C-54.88932145 251.05747926 -56.4036445 251.05291736 -57.91796875 251.04882812 C-61.61201252 251.03785807 -65.30599606 251.02062449 -69 251 C-66.52546411 249.07547478 -64.10985243 247.43176905 -61.3125 246.01953125 C-60.27331421 245.48670532 -60.27331421 245.48670532 -59.21313477 244.94311523 C-58.11763306 244.38346069 -58.11763306 244.38346069 -57 243.8125 C-36.95707483 233.36747512 -18.70029489 219.69121278 -7 200 C-6.50484327 199.23169231 -6.00968655 198.46338463 -5.49952507 197.67179489 C-0.05644063 188.29559488 -0.14886134 179.89211778 -0.22705078 169.37988281 C-0.21886659 167.52590657 -0.2080565 165.67194036 -0.19483948 163.81799316 C-0.16655383 158.81865304 -0.17470571 153.81997579 -0.18970728 148.82060337 C-0.19912355 143.58351945 -0.17460326 138.34659335 -0.15377808 133.10955811 C-0.11951022 123.20759204 -0.11548962 113.30585715 -0.12250316 103.40384364 C-0.12900713 92.12438727 -0.10153706 80.84509224 -0.07130075 69.56568384 C-0.00989651 46.37710595 0.00912753 23.18864988 0 0 Z " fill="#C4D9F4" transform="translate(328,34)"/>
<path d="M0 0 C0.33 0 0.66 0 1 0 C1.1251281 5.44018496 1.21504714 10.87950276 1.2746582 16.32080078 C1.29954983 18.16535055 1.33347631 20.00980437 1.37719727 21.85400391 C1.7142394 36.45387631 0.88654017 49.41318395 -9.125 61.04296875 C-18.11468657 70.4259541 -28.02586818 76.52033772 -41.25415039 77.15649414 C-44.8591095 77.19612551 -48.45769741 77.17482715 -52.0625 77.125 C-53.93325195 77.11146484 -53.93325195 77.11146484 -55.84179688 77.09765625 C-58.89473504 77.07426209 -61.94726306 77.04148174 -65 77 C-61.93963911 74.95975941 -58.88796702 73.50569682 -55.5625 71.9375 C-32.78043652 60.76663478 -18.59153256 41.56162233 -6.95458984 19.78320312 C-6.10525309 18.19661601 -5.23566246 16.62090887 -4.36328125 15.046875 C-1.62611326 9.93331189 -0.32254009 5.80572157 0 0 Z " fill="#C9E0FC" transform="translate(212,324)"/>
</svg>
